<svg width="24" height="25" viewBox="0 0 24 25" fill="none" xmlns="http://www.w3.org/2000/svg">
<path d="M22 6.5V8.92C22 10.5 21 11.5 19.42 11.5H16V4.51C16 3.4 16.91 2.5 18.02 2.5C19.11 2.51 20.11 2.95 20.83 3.67C21.55 4.4 22 5.4 22 6.5Z" stroke="#292D32" stroke-width="1.5" stroke-miterlimit="10" stroke-linecap="round" stroke-linejoin="round"/>
<path d="M2 7.5V21.5C2 22.33 2.93998 22.8 3.59998 22.3L5.31 21.02C5.71 20.72 6.27 20.76 6.63 21.12L8.28998 22.79C8.67998 23.18 9.32002 23.18 9.71002 22.79L11.39 21.11C11.74 20.76 12.3 20.72 12.69 21.02L14.4 22.3C15.06 22.79 16 22.32 16 21.5V4.5C16 3.4 16.9 2.5 18 2.5H7H6C3 2.5 2 4.29 2 6.5V7.5Z" stroke="#292D32" stroke-width="1.5" stroke-miterlimit="10" stroke-linecap="round" stroke-linejoin="round"/>
</svg>
